<svg width="150" height="82" viewBox="0 0 150 82" fill="none" xmlns="http://www.w3.org/2000/svg">
<path d="M112.393 76.13H96.0353C96.0353 76.13 95.1511 66.7304 102.23 65.9759C109.308 65.2214 107.208 55 107.208 55H124.813V76.13H112.393Z" fill="#7DE2D1"/>
<path d="M122.365 71.0477C122.365 71.0477 106.5 72.1049 110.315 81.1994H132.777C132.777 81.1994 138.68 81.1994 137.51 67.1696C137.51 67.1696 141.619 29.0615 136.316 27.072L143.169 31.4187C143.525 31.6389 143.934 31.7587 144.353 31.7653C144.772 31.772 145.185 31.6652 145.548 31.4564C145.911 31.2476 146.211 30.9445 146.416 30.5792C146.621 30.2139 146.724 29.7999 146.713 29.3811V27.5238C145.6 23.3045 124.09 5.00013 106.171 5.00013C102.184 4.98944 98.2218 5.61565 94.433 6.85508C94.433 6.85508 94.3273 6.88151 94.1687 6.93677C92.4435 7.37408 83.2024 9.80329 81.0015 10.0219C78.5578 10.2382 38.7054 8.58508 38.7054 8.58508C33.066 8.49378 32.004 6.65805 28.2172 7.72729C18.4043 10.5025 0.794327 20.7023 3.22834 24.3401C5.81854 28.2134 8.20689 35.4842 28.5873 27.4877H28.693C29.4114 27.4877 33.8974 27.9803 44.9694 38.7856C44.9716 38.8065 44.9809 38.826 44.9958 38.8409C52.245 45.9098 73.9181 74.5461 75.9028 76.1224C77.8875 77.6986 89.9614 81.197 88.3011 68.89C85.9705 68.6518 83.6501 68.3231 81.345 67.9049L81.0663 59.9084C93.2412 63.2146 109.748 57.3855 109.748 57.3855" fill="#7DE2D1"/>
<path d="M44.9432 38C45.2604 39.2831 52.8051 66.9414 44.9168 68.0491C37.0284 69.1568 35.8102 70.8316 36.0217 76.3988H57.0508L67.0584 67.1745C67.0584 67.1745 58.072 43.6513 44.9432 38Z" fill="#7DE2D1"/>
<path d="M81.345 65.9073C81.345 65.9073 84.596 66.52 88.3011 66.89C89.959 79.197 77.8851 75.6986 75.9028 74.1224C73.9205 72.5461 52.245 43.9098 44.9958 36.8409C44.9815 36.8259 44.9729 36.8063 44.9718 36.7856C33.8974 25.9803 29.4114 25.4877 28.6954 25.4877H28.5873C8.20689 33.4842 5.81854 26.2134 3.22834 22.3401C0.794327 18.7023 18.4043 8.5025 28.2172 5.72969C32.004 4.65806 33.0684 6.49618 38.7054 6.58508C38.7054 6.58508 78.5578 8.24059 80.9991 8.02194C83.2024 7.80329 92.4435 5.37408 94.1687 4.93678C94.3273 4.88151 94.433 4.85508 94.433 4.85508C98.2218 3.61565 102.184 2.98944 106.171 3.00013C124.09 3.00013 145.6 21.3045 146.713 25.5238V27.3811C146.723 27.8001 146.621 28.2141 146.415 28.5795C146.21 28.9448 145.91 29.2479 145.546 29.4565C145.183 29.665 144.77 29.7714 144.351 29.7644C143.932 29.7573 143.522 29.637 143.166 29.4163L136.313 25.0672" fill="#7DE2D1"/>
<path d="M81.345 65.9073C81.345 65.9073 84.596 66.52 88.3011 66.89C89.959 79.197 77.8851 75.6986 75.9028 74.1224C73.9205 72.5461 52.245 43.9098 44.9958 36.8409C44.9815 36.8259 44.9729 36.8063 44.9718 36.7856C33.8974 25.9803 29.4114 25.4877 28.6954 25.4877H28.5873C8.20689 33.4842 5.81854 26.2134 3.22834 22.3401C0.794327 18.7023 18.4043 8.5025 28.2172 5.72969C32.004 4.65806 33.0684 6.49618 38.7054 6.58508C38.7054 6.58508 78.5578 8.24059 80.9991 8.02194C83.2024 7.80329 92.4435 5.37408 94.1687 4.93678C94.3273 4.88151 94.433 4.85508 94.433 4.85508C98.2218 3.61565 102.184 2.98944 106.171 3.00013C124.09 3.00013 145.6 21.3045 146.713 25.5238V27.3811C146.723 27.8001 146.621 28.2141 146.415 28.5795C146.21 28.9448 145.91 29.2479 145.546 29.4565C145.183 29.665 144.77 29.7714 144.351 29.7644C143.932 29.7573 143.522 29.637 143.166 29.4163L136.313 25.0672" stroke="black" stroke-width="4.8" stroke-linecap="round" stroke-linejoin="round"/>
<path d="M44.9408 38C45.2604 39.2831 52.8051 66.9415 44.9168 68.0491C37.0284 69.1568 35.8102 70.8316 36.0217 76.3988H57.0484L67.0584 67.1745M109.693 78.16H93.3351C93.3351 78.16 92.4485 69.6686 99.5295 68.9862C106.61 68.3038 104.508 59.0676 104.508 59.0676C96.7951 61.009 88.7218 61.009 81.0113 59.0676M122.31 70.2044C122.31 70.2044 104.924 54.942 103.513 43.8556" stroke="black" stroke-width="4.8" stroke-linecap="round" stroke-linejoin="round"/>
<path d="M122.365 69.0453C122.365 69.0453 106.5 70.1025 110.315 79.197H132.777C132.777 79.197 138.329 78.9423 136.14 65.1263C136.14 65.1263 144.613 43.201 139.5 27.0567M29.4019 10.3046C29.4019 10.3046 34.9331 9.39152 32.7201 17.6955Z" fill="#7DE2D1"/>
<path d="M122.365 69.0453C122.365 69.0453 106.5 70.1025 110.315 79.197H132.777C132.777 79.197 138.329 78.9423 136.14 65.1263C136.14 65.1263 144.613 43.201 139.5 27.0567M29.4019 10.3046C29.4019 10.3046 34.9331 9.39152 32.7201 17.6955" stroke="black" stroke-width="4.8" stroke-linecap="round" stroke-linejoin="round"/>
</svg>
