<?xml version="1.0" encoding="utf-8"?>
<!-- Generator: Adobe Illustrator 19.0.0, SVG Export Plug-In . SVG Version: 6.00 Build 0)  -->
<svg version="1.1" id="layer" xmlns="http://www.w3.org/2000/svg" xmlns:xlink="http://www.w3.org/1999/xlink" x="0px" y="0px"
	 viewBox="-153 -46 652 652" style="enable-background:new -153 -46 652 652;" xml:space="preserve">
<style type="text/css">
	.st0{fill:#39BB90;}
	.st1{fill:#FFFFFF;}
</style>
<path id="XMLID_6_" class="st0" d="M-36.2,282.9c0.8,1.1,1.5,2.1,2.1,3.1c2.1,3.3,4.1,6.6,6.2,9.8c0.5,0.9,1.1,1.8,1.7,2.7
	c1.4,2.2,2.8,4.3,4.2,6.4c3.1,4.9,6.2,9.7,9.3,14.6c0.5,0.9,1.3,1.4,2.4,1.4c10-0.1,20,0,30-0.1c0.6,0,1.6,0.3,1.8-0.5
	c0.1-0.5-0.3-1.3-0.7-1.8c-1.4-2.2-2.8-4.3-4.2-6.4c-1.5-2.4-3-4.7-4.5-7.1c-0.3-0.5-0.6-1-0.9-1.5c-1.3-2-2.7-4-4-5.9
	c-1.5-2.4-3-4.7-4.6-7.1c-0.6-0.9-1.2-1.9-1.8-2.9c-0.8-1.2-1.5-2.5-2.3-3.7c-1.3-1.9-2.7-3.8-3.9-5.8c-1.9-3.2-3.6-6.4-6-9.2
	c-0.2-0.3-0.4-0.7-0.5-1c-0.3-0.6-0.6-1.2-1-1.8c-0.8-1.3-1.7-2.5-2.5-3.8c-0.8-1.2-1.5-2.5-2.2-3.7c-1-1.6-2.2-3-3.3-4.6
	c-0.3-0.5-0.5-1-0.8-1.5c-0.3-0.5-0.5-1.2-0.9-1.6c-2.6-4-5.2-8-7.8-12c-1.5-2.4-3-4.7-4.5-7.1c-0.3-0.5-0.6-1-1-1.5
	c-0.5-0.6-1-0.7-1.6-0.1c-0.3,0.3-0.5,0.7-0.8,1c-0.4,0.6-0.8,1.2-1.2,1.8c-1.5,2.4-3,4.7-4.5,7.2c-1.5,2.3-2.9,4.7-4.4,7
	c-1.2,1.8-2.4,3.6-3.6,5.5c-1.5,2.4-3,4.9-4.6,7.3c-1,1.6-2.2,3.1-3.2,4.7c-2.2,3.4-4.4,6.9-6.5,10.3c-1.3,2.1-2.6,4.2-3.9,6.3
	c-2.3,3.6-4.7,7.2-7,10.9c-1,1.5-1.9,3-2.9,4.6c-2.2,3.3-4.4,6.6-6.6,10c-2.5,3.8-4.9,7.6-7.3,11.4c-0.3,0.5-0.5,1-0.7,1.6
	c-0.2,0.7-0.1,1,0.6,1.2c0.3,0.1,0.7,0.1,1,0.1h29.5c1,0,1.9-0.3,2.5-1.2c1.7-2.6,3.5-5.2,5.2-7.7c2.6-4,5.2-8,7.8-11.9
	c2.1-3.2,4.2-6.5,6.4-9.7c1.4-2.1,2.9-4.2,4.3-6.3C-37.1,283.7-36.6,283.4-36.2,282.9 M-25.6,229.5c0.2,0.5,0.2,0.7,0.3,0.8
	c1.6,2.6,3.2,5.1,4.7,7.7c0.1,0.2,0.3,0.4,0.4,0.6c0.6,0.8,1.2,1.6,1.7,2.5c2.7,4.2,5.2,8.4,7.9,12.5c2.4,3.8,5,7.7,7.5,11.5
	c1.8,2.9,3.6,5.8,5.4,8.6c2.6,4.1,5.3,8.3,8,12.3c0.8,1.3,1.7,2.4,2.5,3.7c0.5,0.8,1,1.8,1.5,2.7c0.6,1,1.3,1.9,1.9,2.9
	c0.8,1.3,1.6,2.5,2.4,3.8c1.2,1.7,2.3,3.3,3.5,5c1,1.5,1.9,3.2,2.9,4.7c1.8,2.9,3.6,5.7,5.5,8.6c0.5,0.8,1,1.6,1.5,2.3
	c0.7,1,1.2,1,1.9-0.1c0.6-0.8,1.2-1.7,1.7-2.6c2.4-3.8,4.9-7.6,7.3-11.4c1.9-2.9,3.8-5.8,5.6-8.7c1.8-2.9,3.6-5.8,5.5-8.8
	c2.2-3.4,4.4-6.7,6.6-10.1c1.3-2.1,2.6-4.2,4-6.3c2-3,4-6,6-9.1c2.2-3.5,4.4-6.9,6.6-10.4c1.8-2.8,3.6-5.6,5.4-8.4
	c1.3-2.1,2.7-4.3,4.1-6.4c1.3-2,2.5-4,3.8-6c0.2-0.3,0.4-0.7,0.5-1c0.3-0.9,0.1-1.3-0.9-1.5c-0.5-0.1-1-0.1-1.5-0.1H63.7
	c-1.6,0-3.3,0.1-5,0.1c-0.8,0-1.4,0.3-1.8,1c-1.3,2.1-2.7,4.3-4,6.4c-1.2,2-2.3,4.1-3.7,5.9c-2.2,3-4.1,6.3-6,9.4
	c-3,4.9-6.2,9.7-9.4,14.6c-0.5,0.8-1,0.7-1.6,0c-1.3-1.9-2.5-3.8-3.8-5.6c-1.7-2.6-3.4-5.2-5.1-7.8c-0.5-0.8-0.9-1.7-1.5-2.5
	c-1.3-1.9-2.7-3.8-4-5.7c-3.2-4.7-6.4-9.5-9.4-14.3c-0.7-1.1-1.4-1.4-2.6-1.3c-7.3,0.1-14.7,0-22,0c-2.7,0-5.5,0.1-8.1,0.1
	C-24.6,229.3-25,229.4-25.6,229.5 M127.8,274.3c-0.1,3.6-0.2,7.2-0.4,10.8c-0.4,5.8-1.1,11.7-2.4,17.4c-1.1,4.8-2.3,9.5-4,14.1
	c-1.1,2.9-2.3,5.7-3.4,8.5c-0.7,1.7-1.4,3.4-2.1,5.1c-1,2.2-2,4.5-3.2,6.7c-1.8,3.1-3.6,6.2-5.6,9.2c-1.5,2.3-3.1,4.3-4.7,6.4
	c-1.3,1.7-2.5,3.5-3.9,5c-2.3,2.6-4.5,5.2-6.9,7.7c-2.9,2.9-5.8,5.8-9,8.5c-4.3,3.6-8.7,6.9-13.4,10c-3.2,2.1-6.4,4-9.8,5.8
	c-3.5,1.8-7.1,3.4-10.7,5c-2.2,1-4.4,1.9-6.7,2.7c-1.9,0.7-4,1.3-6,1.9c-1.9,0.5-3.8,1.2-5.7,1.6c-3.5,0.8-6.9,1.5-10.4,2.2
	c-1.7,0.3-3.5,0.6-5.2,0.7c-3.3,0.3-6.6,0.5-9.8,0.8c-6.3,0.5-12.5,0.1-18.8-0.4c-2.1-0.2-4.2-0.3-6.2-0.6c-2.8-0.4-5.6-1-8.4-1.6
	c-1.7-0.4-3.4-0.7-5.1-1.2c-4.5-1-8.9-2.4-13.2-4.1c-3.8-1.6-7.7-3.2-11.4-4.9c-2.7-1.2-5.3-2.7-7.9-4.1c-3-1.6-5.8-3.6-8.6-5.5
	c-0.6-0.4-1.3-0.8-1.9-1.3c-1.6-1.3-3.3-2.6-5-3.8c-4.1-2.9-7.7-6.3-11.2-9.8c-2.6-2.7-5.2-5.3-7.7-8.2c-2.7-3.1-5.2-6.5-7.6-9.9
	c-1.5-2.1-2.7-4.3-4.1-6.3c-3-4.3-5-8.9-7.2-13.6c-1.1-2.3-2.2-4.7-3.2-7c-0.5-1.1-0.8-2.2-1.3-3.4c-0.8-2.5-1.7-5-2.4-7.5
	c-1.7-5.9-3-11.8-3.8-17.9c-0.4-2.9-0.5-5.8-0.9-8.7c-0.7-5.5-0.5-10.9-0.2-16.4c0.2-4.5,0.8-9,1.5-13.4c0.5-3.5,1.2-7,1.9-10.4
	c0.4-1.7,0.8-3.4,1.3-5c1.7-5.5,3.6-10.9,5.9-16.1c2.4-5.4,5.2-10.6,8.1-15.6c1.5-2.6,3.3-5.1,5.1-7.6c1.6-2.3,3.3-4.7,5.2-6.9
	c2.4-2.9,4.9-5.6,7.5-8.3c1.9-2.1,4-4.1,6.1-6c1.8-1.6,3.6-3.2,5.6-4.7c5-3.9,10.2-7.6,15.7-10.8c2.2-1.3,4.5-2.4,6.8-3.6
	c2.6-1.3,5.1-2.5,7.8-3.6c3.2-1.3,6.4-2.3,9.5-3.6c3.2-1.3,6.4-2.2,9.8-2.9c4.6-1,9.3-2,14-2.7c4.1-0.6,8.2-0.8,12.3-1
	c4.7-0.2,9.4-0.1,14.1,0c2.5,0.1,5,0.5,7.5,0.8c1.5,0.2,2.9,0.3,4.3,0.6c2.8,0.5,5.6,1,8.4,1.6c3.2,0.7,6.3,1.5,9.5,2.4
	c2.3,0.7,4.5,1.6,6.7,2.4c5.7,2.1,11.2,4.7,16.6,7.4c2.9,1.5,5.6,3.2,8.4,5c2.4,1.5,4.8,3.2,7,4.9c2.2,1.6,4.3,3.4,6.4,5.2
	c2.4,2.1,4.8,4.1,7,6.3c3.9,3.8,7.7,7.8,11,12c2.7,3.5,5.4,7.1,7.8,10.9c1.1,1.7,2.2,3.4,3,5.2c1.3,2.6,3,5,4.3,7.6
	c1.8,3.6,3.3,7.2,4.8,10.9c2.1,5.3,3.6,10.8,5,16.3c0.6,2.5,1,5,1.4,7.6c0.4,1.9,0.7,3.9,1,5.9C127.5,263.9,127.9,269.1,127.8,274.3
	 M192.5,275.3C192.5,275.3,192.5,275.4,192.5,275.3h11.7c0.6,0,1.3,0.1,1.9,0c1.4-0.1,1.7-0.6,1.2-1.9c-0.7-1.9-1.5-3.7-2.3-5.5
	c-0.8-2.1-1.8-4.1-2.7-6.1c-0.8-2-1.6-4.1-2.5-6.1c-1.9-4.5-3.9-9-6-13.4c-0.2-0.4-0.5-0.6-0.8-0.9c-0.3,0.3-0.7,0.6-0.8,0.9
	c-0.8,1.8-1.6,3.6-2.5,5.4c-1.6,3.5-3.2,7-4.7,10.6c-0.9,2.1-1.7,4.1-2.6,6.2c-1.3,2.9-2.5,5.6-3.8,8.5c-0.1,0.2-0.2,0.5-0.2,0.7
	c-0.4,1.3-0.2,1.6,1.3,1.6C184,275.3,188.3,275.3,192.5,275.3 M156.6,308c0.1-0.4,0.1-0.7,0.2-1.1c0.8-2,1.6-4,2.5-6
	c1.1-2.4,2.3-4.9,3.3-7.3c1.3-2.9,2.5-5.9,3.8-8.8c1.8-4.1,3.6-8.1,5.4-12.3c1.3-3.1,2.6-6.1,3.9-9.2c0.2-0.4,0.3-0.7,0.5-1.1
	c1.8-4,3.6-7.8,5.3-11.8c2.7-6.3,5.5-12.5,8.1-18.8c0.7-1.6,1.6-2.4,3.3-2.2c0.4,0.1,0.7,0,1,0c1,0,1.7,0.5,2.1,1.5
	c0.9,2.2,1.9,4.3,2.9,6.5c2.3,5.2,4.5,10.3,6.7,15.5c2.2,5,4.3,10.1,6.5,15.1c1.2,2.7,2.4,5.3,3.6,8c2.4,5.5,4.8,10.9,7.2,16.4
	c2,4.6,4.1,9.2,6.1,13.9c0.8,1.9,0.7,2-1.4,2.1h-3.5c-1,0-1.7-0.4-2.1-1.4c-1.6-4-3.3-8.1-5.1-12.1c-1.7-3.9-3.6-7.8-5.3-11.8
	c-0.5-1-1.1-1.3-2.1-1.3h-31.5h-1.6c-1-0.1-1.6,0.4-2.1,1.3c-1,2.1-1.9,4.3-2.9,6.4c-0.8,1.8-1.5,3.6-2.3,5.3
	c-1.1,2.7-2.2,5.3-3.3,8c-0.7,1.7-1.5,3.3-2.3,5c-0.2,0.3-0.7,0.7-1,0.7c-1.8,0-3.7-0.1-5.5-0.2C156.9,308.3,156.8,308.2,156.6,308
	 M335.5,275.4h11.4c0.8,0,1.8,0,2.6-0.1c0.8-0.1,1-0.5,0.7-1.2c-0.4-0.8-0.8-1.7-1.2-2.5c-2.1-4.9-4.2-9.8-6.3-14.7
	c-1.5-3.4-3-6.9-4.5-10.3c-0.7-1.5-1.2-3-1.9-4.4c-0.1-0.3-0.5-0.5-0.7-0.8c-0.3,0.3-0.6,0.5-0.8,0.8c-0.1,0.1-0.1,0.2-0.1,0.2
	c-0.5,1.2-0.9,2.3-1.5,3.5c-1.6,3.5-3.2,7-4.8,10.4c-2.1,4.7-4.1,9.5-6.2,14.3c-0.5,1.1-0.9,2.1-1.3,3.2c-0.3,1-0.1,1.3,1,1.5
	c0.7,0.1,1.5,0.1,2.2,0.1C327.8,275.4,331.6,275.4,335.5,275.4 M298.8,307.7c1.8-4,3.5-7.8,5.2-11.8c1.3-2.9,2.4-5.8,3.7-8.7
	c2.1-4.7,4.2-9.5,6.3-14.2c1.8-4.1,3.5-8.2,5.2-12.3c0.2-0.6,0.5-1.2,0.8-1.7c1.7-3.9,3.4-7.7,5-11.6c2.2-5.2,4.5-10.3,6.7-15.5
	c0.2-0.5,0.5-1,0.8-1.4c0.2-0.3,0.5-0.7,0.8-0.7c1.3-0.1,2.6-0.1,3.9-0.1c0.3,0,0.7,0.5,0.8,0.9c1.6,3.4,3.1,6.8,4.6,10.2
	c1.8,4.1,3.3,8.1,5.1,12.2c1.2,2.7,2.4,5.4,3.6,8.1c1.6,3.7,3.2,7.4,4.8,11.1c2.4,5.4,4.9,10.8,7.2,16.2c1.4,3.2,2.7,6.3,4.1,9.5
	c1.2,2.7,2.3,5.3,3.5,8c0.9,2,1.1,2.6-1.5,2.5c-1-0.1-2.1-0.1-3,0c-1.1,0.1-1.8-0.4-2.2-1.5c-1.7-4-3.5-8-5.2-12
	c-1.5-3.4-3-6.7-4.4-10.1c-0.1-0.1-0.1-0.2-0.1-0.2c-1.2-2.7-1.2-2.8-4.2-2.8c-9.6,0-19.1-0.1-28.7-0.1c-1,0-2.1,0.1-3,0.1
	c-1,0-1.6,0.4-2,1.3c-2.1,4.9-4.3,9.8-6.4,14.7c-1.3,3-2.7,6.1-4.1,9.2c-0.5,1.2-1.3,1.6-2.4,1.6c-1.1,0-2.1,0.1-3.2,0
	C299.8,308.5,299.7,308.5,298.8,307.7 M264.4,297.4c0.4-0.6,0.7-1.1,0.9-1.6c1-2.2,1.9-4.4,2.8-6.6c1.8-4.2,3.6-8.4,5.5-12.5
	c2.1-4.9,4.3-9.8,6.4-14.6c2.2-5.1,4.4-10.3,6.6-15.4c0.8-1.8,1.6-3.6,2.4-5.5c1.3-3.2,2.7-6.3,4-9.5c0.6-1.5,1.5-2.3,3.2-2.1
	c1.5,0.1,2.9,0.1,4.6,0.1c-0.2,0.7-0.2,1.2-0.4,1.5c-0.8,2-1.8,4-2.6,6c-1,2.4-2,4.8-3.1,7.2c-1.5,3.4-3.1,6.8-4.6,10.2
	c-0.9,2-1.7,4-2.5,6c-1.1,2.5-2.2,5.1-3.3,7.6c-1.5,3.4-2.9,6.8-4.4,10.1c-0.7,1.7-1.5,3.4-2.2,5c-1.9,4.5-3.9,9-5.9,13.5
	c-1.3,3.1-2.7,6.2-4,9.4c-0.6,1.5-1.6,2.2-3.2,2.1c-0.7-0.1-1.3,0-2.1,0c-0.8-0.1-1.4-0.5-1.8-1.3c-1.6-3.6-3.2-7.3-4.7-10.9
	c-1.3-3.2-2.7-6.3-4.1-9.5c-1.1-2.6-2.3-5.2-3.5-7.7c-1.9-4.4-3.8-8.9-5.8-13.4c-2.5-5.7-5-11.5-7.5-17.2c-0.9-2.1-1.8-4.2-2.6-6.3
	l-4.4-9.8c-1.1-2.4-1-2.6,1.6-2.6c0.8,0,1.6-0.1,2.3-0.1c1.3-0.1,2.2,0.5,2.7,1.8c1.6,3.9,3.4,7.8,5.1,11.7
	c1.8,4.1,3.6,8.1,5.5,12.2c1.3,2.9,2.5,5.9,3.8,8.8c1.4,3.3,2.9,6.6,4.3,9.9c2.3,5,4.4,10.1,6.7,15.2c1.1,2.5,2.3,4.9,3.3,7.4
	C263.9,296.8,264.1,297,264.4,297.4 M414.8,268.9v-35.4c0-0.8-0.1-1.8-0.1-2.6c0-0.9,0.2-1.2,1.1-1.2c1.4-0.1,2.8-0.1,4.3-0.1
	c0.7,0,1.1,0.4,1.2,1.1c0.1,0.5,0.1,1,0.1,1.5v49.6v18.6c0,1.6,0.1,1.7,1.6,1.7c2.1,0.1,4.2,0,6.3,0c12.5,0,24.9,0.1,37.3,0.1h0.8
	c0.5,0,0.9,0.3,0.9,0.9v4.4c0,0.7-0.4,0.9-1,0.9c-1.2,0-2.3,0.1-3.5,0.1h-46.5h-0.4c-1.8-0.1-2-0.2-2-2.1
	C414.8,293.9,414.8,281.4,414.8,268.9 M385.6,269v-37c0-2.3,0.1-2.4,2.3-2.4h2.8c1,0.1,1.3,0.2,1.3,1.3c0.1,1.6,0.1,3.1,0.1,4.7V297
	v9.3c0,0.4,0,0.8-0.1,1.2c-0.1,0.6-0.4,1-1,1h-4.3c-0.7,0-1.2-0.4-1.2-1.2v-1.6C385.5,293.4,385.5,281.2,385.6,269"/>
<path id="XMLID_1_" class="st1" d="M-25.6,229.5c0.6-0.1,1-0.2,1.4-0.2c2.7-0.1,5.5-0.1,8.1-0.1h22c1.2,0,1.9,0.3,2.6,1.3
	c3.1,4.8,6.3,9.6,9.4,14.3c1.3,1.9,2.7,3.8,4,5.7c0.5,0.8,0.9,1.7,1.5,2.5c1.7,2.6,3.4,5.2,5.1,7.8c1.3,1.9,2.6,3.8,3.8,5.6
	c0.5,0.8,1.1,0.8,1.6,0c3.1-4.9,6.3-9.7,9.4-14.6c1.9-3.2,3.8-6.4,6-9.4c1.3-1.9,2.5-3.9,3.7-5.9c1.3-2.1,2.7-4.3,3.9-6.4
	c0.4-0.7,1-1,1.8-1c1.6,0,3.3-0.1,5-0.1h24.9c0.5,0,1,0,1.5,0.1c0.9,0.1,1.2,0.5,0.8,1.5c-0.1,0.4-0.3,0.7-0.5,1c-1.3,2-2.5,4-3.8,6
	c-1.3,2.1-2.7,4.3-4.1,6.4c-1.8,2.8-3.6,5.6-5.4,8.4c-2.2,3.5-4.4,7-6.6,10.4c-1.9,3-4,6-6,9.1c-1.3,2.1-2.6,4.2-4,6.3
	c-2.2,3.4-4.4,6.7-6.6,10.1c-1.9,2.9-3.6,5.8-5.5,8.8c-1.8,2.9-3.7,5.8-5.6,8.7c-2.4,3.8-4.9,7.6-7.3,11.4c-0.6,0.8-1.1,1.7-1.7,2.6
	c-0.7,1-1.2,1-1.9,0.1c-0.5-0.7-1-1.5-1.5-2.3c-1.8-2.9-3.6-5.7-5.5-8.6c-1-1.6-1.9-3.2-2.9-4.7c-1.1-1.7-2.3-3.3-3.5-5
	c-0.8-1.2-1.6-2.5-2.4-3.8c-0.6-1-1.3-1.9-1.9-2.9c-0.5-0.8-1-1.8-1.5-2.7c-0.8-1.3-1.7-2.5-2.6-3.7c-2.7-4.1-5.3-8.2-8-12.3
	c-1.8-2.9-3.6-5.8-5.4-8.6c-2.5-3.8-5-7.7-7.5-11.5c-2.7-4.1-5.3-8.4-7.9-12.5c-0.5-0.8-1.2-1.7-1.7-2.5c-0.1-0.2-0.3-0.4-0.4-0.6
	c-1.6-2.5-3.2-5.1-4.7-7.7C-25.4,230.1-25.5,229.9-25.6,229.5 M-36.2,282.9c0.8,1.2,1.5,2.1,2,2.9c2.1,3.3,4.1,6.6,6.2,9.8
	c0.6,0.9,1.2,1.8,1.7,2.7c1.4,2.1,2.8,4.2,4.2,6.4c3.1,4.9,6.3,9.7,9.3,14.6c0.6,1,1.3,1.4,2.4,1.4c10,0,20,0,30-0.1
	c0.7,0,1.6,0.3,1.8-0.5c0.1-0.5-0.3-1.3-0.7-1.8c-1.3-2.2-2.8-4.3-4.2-6.4c-1.5-2.4-3-4.7-4.5-7.1c-0.3-0.5-0.6-1-0.9-1.5
	c-1.3-1.9-2.7-3.9-4-5.9c-1.6-2.4-3-4.7-4.6-7.1c-0.5-1-1.2-1.9-1.8-2.9c-0.8-1.2-1.5-2.5-2.3-3.7c-1.3-1.9-2.7-3.8-3.9-5.8
	c-1.9-3.1-3.6-6.4-6-9.2c-0.2-0.3-0.4-0.7-0.5-1c-0.3-0.6-0.6-1.2-1-1.8c-0.8-1.3-1.7-2.5-2.5-3.8c-0.7-1.2-1.5-2.5-2.3-3.7
	c-1-1.6-2.2-3.1-3.3-4.6c-0.4-0.5-0.5-1-0.9-1.5c-0.3-0.5-0.5-1.1-0.9-1.6c-2.5-4-5.2-8-7.8-12c-1.5-2.4-3-4.7-4.5-7.1
	c-0.3-0.5-0.6-1-1-1.5c-0.5-0.6-1-0.7-1.6-0.1c-0.3,0.3-0.5,0.7-0.8,1c-0.4,0.6-0.8,1.2-1.2,1.8c-1.5,2.4-3,4.8-4.5,7.2
	c-1.5,2.3-2.9,4.7-4.4,7c-1.2,1.9-2.4,3.6-3.6,5.5c-1.5,2.4-3,4.9-4.6,7.3c-1,1.6-2.2,3.1-3.2,4.7c-2.2,3.4-4.3,6.9-6.5,10.3
	c-1.3,2.1-2.6,4.2-3.9,6.3c-2.4,3.6-4.7,7.2-7,10.9c-1,1.5-1.9,3-2.9,4.6c-2.2,3.3-4.4,6.6-6.6,10c-2.5,3.8-4.9,7.5-7.3,11.4
	c-0.3,0.5-0.5,1-0.7,1.6c-0.2,0.7-0.1,1,0.6,1.2c0.4,0.1,0.7,0.1,1,0.1h29.5c1.1,0,1.9-0.3,2.5-1.2c1.7-2.5,3.5-5.1,5.2-7.7
	c2.6-4,5.2-8,7.8-11.9c2.1-3.2,4.3-6.5,6.4-9.7c1.4-2.1,2.9-4.2,4.3-6.3C-37.1,283.7-36.6,283.4-36.2,282.9 M192.5,275.3
	C192.5,275.3,192.5,275.4,192.5,275.3c3.9,0.1,7.8,0.1,11.7,0.1c0.6,0,1.3,0.1,1.9,0c1.4-0.2,1.7-0.6,1.2-1.9
	c-0.7-1.9-1.5-3.7-2.3-5.5c-0.9-2.1-1.8-4.1-2.7-6.1c-0.9-2-1.7-4.1-2.5-6.1c-2-4.5-3.9-8.9-6-13.4c-0.2-0.4-0.5-0.6-0.8-0.9
	c-0.2,0.3-0.6,0.5-0.8,0.9c-0.9,1.8-1.7,3.6-2.5,5.4c-1.6,3.5-3.2,7-4.7,10.6c-0.8,2.1-1.6,4.1-2.6,6.2c-1.2,2.9-2.5,5.6-3.8,8.5
	c-0.1,0.2-0.2,0.4-0.2,0.7c-0.4,1.3-0.2,1.6,1.3,1.6H192.5 M335.5,275.4c3.8,0,7.6,0,11.4,0.1c0.8,0,1.8,0,2.6-0.1
	c0.9-0.1,1-0.4,0.7-1.2c-0.4-0.8-0.8-1.7-1.2-2.6c-2.1-4.9-4.2-9.8-6.3-14.7c-1.5-3.5-3-6.9-4.5-10.3c-0.6-1.5-1.2-3-1.9-4.4
	c-0.2-0.3-0.5-0.5-0.7-0.8c-0.2,0.3-0.5,0.5-0.8,0.8c-0.1,0.1-0.1,0.2-0.1,0.2c-0.5,1.2-0.9,2.3-1.5,3.5c-1.6,3.5-3.2,6.9-4.8,10.4
	c-2.1,4.7-4.1,9.5-6.2,14.3c-0.4,1-0.9,2.1-1.3,3.2c-0.4,1-0.1,1.3,1,1.5c0.7,0.1,1.5,0.1,2.2,0.1H335.5"/>
</svg>
